<svg width="135" height="41" viewBox="0 0 135 41" fill="none" xmlns="http://www.w3.org/2000/svg">
<path fill-rule="evenodd" clip-rule="evenodd" d="M129.998 40.23H5.00184C2.24512 40.23 0 37.9756 0 35.23V5.22998C0 2.47437 2.24512 0.22998 5.00184 0.22998H129.998C132.752 0.22998 135 2.47437 135 5.22998V35.23C135 37.9756 132.752 40.23 129.998 40.23Z" fill="white"/>
<path fill-rule="evenodd" clip-rule="evenodd" d="M129.998 1.03048C132.31 1.03048 134.203 2.91826 134.203 5.22998V35.23C134.203 37.5417 132.323 39.4295 129.998 39.4295H5.00184C2.68967 39.4295 0.797215 37.5417 0.797215 35.23V5.22998C0.797215 2.91826 2.67725 1.03048 5.00184 1.03048H129.998ZM129.998 0.22998H5.00184C2.24512 0.22998 0 2.48434 0 5.22998V35.23C0 37.9856 2.24512 40.23 5.00184 40.23H129.998C132.752 40.23 135 37.9856 135 35.23V5.22998C135 2.48434 132.752 0.22998 129.998 0.22998Z" fill="#A6A6A6"/>
<path d="M71.1191 13.462C70.2176 13.462 69.4577 13.1453 68.8567 12.5218C68.2606 11.9158 67.9278 11.0804 67.9427 10.2275C67.9427 9.31731 68.2507 8.54674 68.8567 7.93576C69.4552 7.31232 70.2151 6.99561 71.1167 6.99561C72.0082 6.99561 72.7682 7.31232 73.3791 7.93576C73.9851 8.56669 74.2931 9.33726 74.2931 10.2275C74.2831 11.1403 73.9752 11.9108 73.3791 12.5193C72.7806 13.1477 72.0207 13.462 71.1191 13.462ZM44.2946 13.462C43.413 13.462 42.6481 13.1502 42.0222 12.5343C41.4013 11.9208 41.0859 11.1453 41.0859 10.23C41.0859 9.31482 41.4013 8.53926 42.0222 7.92579C42.6357 7.30983 43.4006 6.99811 44.2946 6.99811C44.7317 6.99811 45.1564 7.08539 45.5637 7.26245C45.9636 7.43452 46.2889 7.66893 46.5298 7.95571L46.5894 8.02803L45.9164 8.69137L45.8468 8.60908C45.4669 8.15522 44.9577 7.93327 44.2847 7.93327C43.6837 7.93327 43.1597 8.14773 42.7275 8.57168C42.2929 8.99811 42.0719 9.5567 42.0719 10.2325C42.0719 10.9083 42.2929 11.4669 42.7275 11.8934C43.1597 12.3173 43.6837 12.5318 44.2847 12.5318C44.9255 12.5318 45.4644 12.3173 45.8841 11.8934C46.1324 11.644 46.2864 11.2949 46.3411 10.8535H44.1829V9.9208H47.2674L47.2798 10.0056C47.3022 10.1627 47.3245 10.3248 47.3245 10.4744C47.3245 11.3348 47.0663 12.0305 46.5546 12.5443C45.9735 13.1527 45.2135 13.462 44.2946 13.462ZM79.9605 13.3298H79.0093L76.0961 8.64898L76.121 9.49187V13.3273H75.1698V7.13028H76.2551L76.2849 7.17766L79.0242 11.5866L78.9993 10.7462V7.13028H79.9605V13.3298ZM63.9716 13.3298H63.008V8.06295H61.3366V7.13028H65.6405V8.06295H63.9691V13.3298H63.9716ZM60.5518 13.3298H59.5906V7.13028H60.5518V13.3298ZM55.1501 13.3298H54.189V8.06295H52.5176V7.13028H56.8215V8.06295H55.1501V13.3298ZM51.9091 13.3198H48.2236V7.13028H51.9091V8.06295H49.1872V9.76369H51.6434V10.6864H49.1872V12.3871H51.9091V13.3198ZM69.562 11.8809C69.9916 12.3123 70.5132 12.5293 71.1191 12.5293C71.7425 12.5293 72.2516 12.3173 72.6763 11.8809C73.0985 11.457 73.3121 10.9009 73.3121 10.23C73.3121 9.55921 73.0985 9.0006 72.6788 8.57915C72.2491 8.14772 71.7251 7.93078 71.1216 7.93078C70.4983 7.93078 69.9891 8.14275 69.5669 8.57915C69.1447 9.00309 68.9312 9.55921 68.9312 10.23C68.9312 10.9009 69.1423 11.4595 69.562 11.8809Z" fill="black"/>
<path fill-rule="evenodd" clip-rule="evenodd" d="M67.8528 21.9859C65.5059 21.9859 63.6035 23.7739 63.6035 26.2402C63.6035 28.6841 65.5183 30.4946 67.8528 30.4946C70.1998 30.4946 72.1021 28.6941 72.1021 26.2402C72.1021 23.7739 70.1998 21.9859 67.8528 21.9859ZM67.8528 28.8088C66.5688 28.8088 65.4636 27.7415 65.4636 26.2303C65.4636 24.6966 66.5713 23.6517 67.8528 23.6517C69.1368 23.6517 70.242 24.6966 70.242 26.2303C70.2445 27.7514 69.1368 28.8088 67.8528 28.8088ZM58.5818 21.9859C56.2348 21.9859 54.3324 23.7739 54.3324 26.2402C54.3324 28.6841 56.2472 30.4946 58.5818 30.4946C60.9287 30.4946 62.8311 28.6941 62.8311 26.2402C62.8311 23.7739 60.9262 21.9859 58.5818 21.9859ZM58.5818 28.8088C57.2978 28.8088 56.1926 27.7415 56.1926 26.2303C56.1926 24.6966 57.3003 23.6517 58.5818 23.6517C59.8658 23.6517 60.9709 24.6966 60.9709 26.2303C60.9709 27.7514 59.8658 28.8088 58.5818 28.8088ZM47.5499 23.2851V25.0856H51.8539C51.7222 26.0956 51.3894 26.8412 50.8803 27.3524C50.2495 27.9859 49.2759 28.6741 47.5598 28.6741C44.9149 28.6741 42.8461 26.5295 42.8461 23.8736C42.8461 21.2178 44.9149 19.0731 47.5598 19.0731C48.9879 19.0731 50.0285 19.6392 50.8008 20.3624L52.0724 19.0856C50.9995 18.0532 49.5715 17.2627 47.5698 17.2627C43.9413 17.2627 40.8965 20.2303 40.8965 23.8637C40.8965 27.5071 43.9388 30.4647 47.5698 30.4647C49.5293 30.4647 50.9995 29.8213 52.1618 28.6093C53.3465 27.4198 53.7215 25.7415 53.7215 24.3874C53.7215 23.9659 53.6892 23.5869 53.6221 23.2652H47.5474C47.5499 23.2627 47.5499 23.2851 47.5499 23.2851ZM92.6733 24.6866C92.3181 23.7315 91.2453 21.9759 89.0448 21.9759C86.8643 21.9759 85.0513 23.6991 85.0513 26.2303C85.0513 28.6193 86.8444 30.4846 89.2559 30.4846C91.1931 30.4846 92.3206 29.2951 92.7851 28.5968L91.3471 27.6293C90.8702 28.34 90.2071 28.8063 89.2659 28.8063C88.3147 28.8063 87.6491 28.3724 87.207 27.517L92.872 25.1604C92.872 25.1629 92.6733 24.6866 92.6733 24.6866ZM86.8966 26.1081C86.8519 24.4647 88.1682 23.6293 89.1094 23.6293C89.852 23.6293 90.4704 23.9958 90.6815 24.5295L86.8966 26.1081ZM82.2946 30.2303H84.1548V17.7315H82.2946V30.2303ZM79.2398 22.931H79.1728C78.7531 22.4298 77.9558 21.9759 76.9376 21.9759C74.8241 21.9759 72.877 23.8437 72.877 26.2427C72.877 28.6317 74.8142 30.4771 76.9376 30.4771C77.9434 30.4771 78.7531 30.0208 79.1728 29.5096H79.2398V30.1205C79.2398 31.744 78.3756 32.6193 76.9823 32.6193C75.8424 32.6193 75.1345 31.7963 74.8465 31.1081L73.2297 31.7864C73.6941 32.9086 74.9334 34.2976 76.9798 34.2976C79.1604 34.2976 81.0081 33.0083 81.0081 29.8637V22.2303H79.2498V22.931C79.2523 22.931 79.2398 22.931 79.2398 22.931ZM77.104 28.8088C75.82 28.8088 74.7471 27.7315 74.7471 26.2427C74.7471 24.7415 75.82 23.6542 77.104 23.6542C78.3756 23.6542 79.3615 24.7539 79.3615 26.2427C79.3739 27.7315 78.378 28.8088 77.104 28.8088ZM101.383 17.7315H96.935V30.2303H98.7952V25.4971H101.386C103.444 25.4971 105.468 23.9983 105.468 21.6193C105.468 19.2402 103.452 17.7315 101.383 17.7315ZM101.438 23.7514H98.7927V19.4622H101.438C102.831 19.4622 103.618 20.6168 103.618 21.6068C103.618 22.5869 102.821 23.7514 101.438 23.7514ZM112.924 21.9634C111.573 21.9634 110.18 22.5644 109.604 23.8736L111.253 24.5619C111.608 23.8736 112.258 23.6392 112.946 23.6392C113.91 23.6392 114.884 24.2178 114.906 25.2502V25.3824C114.573 25.1928 113.843 24.9036 112.969 24.9036C111.188 24.9036 109.383 25.8811 109.383 27.714C109.383 29.3923 110.843 30.4697 112.47 30.4697C113.719 30.4697 114.407 29.9036 114.836 29.2477H114.903V30.2153H116.697V25.4273C116.697 23.1978 115.047 21.9634 112.924 21.9634ZM112.691 28.8088C112.082 28.8088 111.23 28.5096 111.23 27.7415C111.23 26.7739 112.293 26.4073 113.2 26.4073C114.019 26.4073 114.407 26.5844 114.894 26.8288C114.759 27.9509 113.816 28.7988 112.691 28.8088ZM123.238 22.2303L121.102 27.6517H121.035L118.822 22.2303H116.821L120.141 29.8088L118.249 34.0208H120.186L125.295 22.2303H123.238ZM106.494 30.2303H108.354V17.7315H106.494V30.2303Z" fill="black"/>
<path fill-rule="evenodd" clip-rule="evenodd" d="M10.392 7.76362C10.1039 8.07534 9.9375 8.55165 9.9375 9.17509V31.2873C9.9375 31.9108 10.1039 32.3871 10.4019 32.6863L10.4789 32.7537L22.8171 20.3646V20.0878L10.469 7.69629L10.392 7.76362Z" fill="url(#paint0_linear_29_643)"/>
<path fill-rule="evenodd" clip-rule="evenodd" d="M26.9219 24.5068L22.8066 20.3746V20.0853L26.9219 15.9531L27.0113 16.008L31.879 18.7861C33.2723 19.5741 33.2723 20.8758 31.879 21.6738L27.0113 24.4519L26.9219 24.5068Z" fill="url(#paint1_linear_29_643)"/>
<path fill-rule="evenodd" clip-rule="evenodd" d="M27.0104 24.4519L22.8058 20.23L10.3906 32.6963C10.8451 33.1851 11.6076 33.24 12.4594 32.7637L27.0104 24.4519Z" fill="url(#paint2_linear_29_643)"/>
<path fill-rule="evenodd" clip-rule="evenodd" d="M27.0104 16.0079L12.4594 7.70867C11.6076 7.2199 10.8426 7.28723 10.3906 7.77601L22.8058 20.2299L27.0104 16.0079Z" fill="url(#paint3_linear_29_643)"/>
<path opacity="0.2" fill-rule="evenodd" clip-rule="evenodd" d="M26.921 24.3623L12.4692 32.6067C11.662 33.073 10.9418 33.0406 10.4774 32.6167L10.4004 32.694L10.4774 32.7613C10.9418 33.1827 11.662 33.2177 12.4692 32.7513L27.0203 24.4521L26.921 24.3623Z" fill="black"/>
<path opacity="0.12" fill-rule="evenodd" clip-rule="evenodd" d="M31.8778 21.5293L26.9082 24.3622L26.9976 24.4519L31.8653 21.6739C32.5632 21.2749 32.9059 20.7512 32.9059 20.23C32.8637 20.7088 32.5086 21.1627 31.8778 21.5293Z" fill="black"/>
<path opacity="0.25" fill-rule="evenodd" clip-rule="evenodd" d="M12.4608 7.85328L31.8795 18.9305C32.5103 19.2872 32.8655 19.7535 32.9201 20.2298C32.9201 19.7086 32.5774 19.1849 31.8795 18.7859L12.4608 7.70864C11.0675 6.90814 9.9375 7.57647 9.9375 9.17497V9.31961C9.9375 7.71861 11.0675 7.06275 12.4608 7.85328Z" fill="black"/>
<defs>
<linearGradient id="paint0_linear_29_643" x1="21.7104" y1="8.93652" x2="1.93599" y2="14.1838" gradientUnits="userSpaceOnUse">
<stop stop-color="#00A0FF"/>
<stop offset="0.00657" stop-color="#00A1FF"/>
<stop offset="0.2601" stop-color="#00BEFF"/>
<stop offset="0.5122" stop-color="#00D2FF"/>
<stop offset="0.7604" stop-color="#00DFFF"/>
<stop offset="1" stop-color="#00E3FF"/>
</linearGradient>
<linearGradient id="paint1_linear_29_643" x1="33.696" y1="20.23" x2="9.5983" y2="20.23" gradientUnits="userSpaceOnUse">
<stop stop-color="#FFE000"/>
<stop offset="0.4087" stop-color="#FFBD00"/>
<stop offset="0.7754" stop-color="#FFA500"/>
<stop offset="1" stop-color="#FF9C00"/>
</linearGradient>
<linearGradient id="paint2_linear_29_643" x1="24.7241" y1="22.5273" x2="8.76139" y2="49.2838" gradientUnits="userSpaceOnUse">
<stop stop-color="#FF3A44"/>
<stop offset="1" stop-color="#C31162"/>
</linearGradient>
<linearGradient id="paint3_linear_29_643" x1="7.26436" y1="0.408661" x2="14.386" y2="12.3586" gradientUnits="userSpaceOnUse">
<stop stop-color="#32A071"/>
<stop offset="0.0685" stop-color="#2DA771"/>
<stop offset="0.4762" stop-color="#15CF74"/>
<stop offset="0.8009" stop-color="#06E775"/>
<stop offset="1" stop-color="#00F076"/>
</linearGradient>
</defs>
</svg>
