<svg width="40" height="41" viewBox="0 0 40 41" fill="none" xmlns="http://www.w3.org/2000/svg">
<path d="M36.0641 18.0964C36.1475 18.7371 36.1909 19.3911 36.1909 20.0551C36.1909 28.4105 29.4171 35.1809 21.0618 35.1809C17.5014 35.1809 14.228 33.9496 11.6453 31.8908C11.4985 31.774 11.355 31.6572 11.2148 31.5337" stroke="#002551" stroke-width="1.33472"/>
<path d="M6.90322 25.3898C6.27924 23.7314 5.93555 21.9328 5.93555 20.0542C5.93555 11.6988 12.7093 4.92847 21.0613 4.92847C23.634 4.92847 26.0532 5.56913 28.1754 6.70031" stroke="#002551" stroke-width="1.33472"/>
<path d="M30.8923 17.198C31.1559 18.1056 31.2961 19.0666 31.2961 20.0576C31.2961 25.7102 26.7146 30.2916 21.0621 30.2916C17.6018 30.2916 14.5453 28.5731 12.6934 25.9471" stroke="#002551" stroke-width="1.33472"/>
<path d="M10.8654 20.8845C10.842 20.6109 10.832 20.3339 10.832 20.057C10.832 14.4044 15.4135 9.823 21.066 9.823C23.7288 9.823 26.1513 10.8374 27.9732 12.5058" stroke="#002551" stroke-width="1.33472"/>
<path d="M29.4709 8.4519V11.3182H32.4173L23.3179 20.134L18.2526 15.7929L5.12891 29.694L7.21107 31.6627L18.4628 19.7503L23.4347 24.0114L34.1325 13.6506V15.9797H36.9988V8.4519H29.4709Z" stroke="#002551" stroke-width="1.33472"/>
</svg>
