<svg width="40" height="41" viewBox="0 0 40 41" fill="none" xmlns="http://www.w3.org/2000/svg">
<path d="M15.5804 27.9179H4.27539V8.61792H36.1455V13.523" stroke="#002551" stroke-width="1.33"/>
<path d="M36.1455 4.89722H4.27539V8.6181H36.1455V4.89722Z" stroke="#002551" stroke-width="1.33"/>
<path d="M5.73047 6.72925H6.94058" stroke="#002551" stroke-width="1.33"/>
<path d="M7.82422 6.72925H9.03431" stroke="#002551" stroke-width="1.33"/>
<path d="M9.91797 6.72925H11.1281" stroke="#002551" stroke-width="1.33"/>
<path d="M17.877 21.9959V15.9324H36.1448V35.1581H17.877V26.3088" stroke="#002551" stroke-width="1.33"/>
<path d="M21.4199 17.8988V15.9122C21.4199 13.3108 23.5328 11.198 26.1341 11.198H27.9687C30.57 11.198 32.6829 13.314 32.6829 15.9122V17.8988" stroke="#002551" stroke-width="1.33"/>
<path d="M26.7912 21.735L24.4004 24.1258L26.7912 26.5166L29.182 24.1258L26.7912 21.735Z" stroke="#002551" stroke-width="1.33"/>
<path d="M19.6895 32.7292H34.3335" stroke="#002551" stroke-width="1.33"/>
<path d="M15.1957 11.3191H6.90625V19.6085H15.1957V11.3191Z" stroke="#002551" stroke-width="1.33"/>
<path d="M6.90625 19.6085L15.1957 11.3191" stroke="#002551" stroke-width="1.33"/>
<path d="M6.90625 11.3191L15.1957 19.6085" stroke="#002551" stroke-width="1.33"/>
<path d="M19.9512 26.537L22.3972 24.0876L19.9512 21.6416" stroke="#002551" stroke-width="1.33"/>
<path d="M21.9504 24.1524H13.4765C12.1144 24.1524 11.0078 23.0459 11.0078 21.6837C11.0078 21.4119 11.0078 21.4249 11.0078 21.4249" stroke="#002551" stroke-width="1.33"/>
</svg>
